<svg width="200" viewBox="0 0 138 27" fill="none" xmlns="http://www.w3.org/2000/svg">
<path d="M11.268 26.432C9.276 26.432 7.344 26.168 5.472 25.64C3.624 25.088 2.136 24.38 1.008 23.516L2.988 19.124C4.068 19.916 5.352 20.552 6.84 21.032C8.328 21.512 9.816 21.752 11.304 21.752C12.96 21.752 14.184 21.512 14.976 21.032C15.768 20.528 16.164 19.868 16.164 19.052C16.164 18.452 15.924 17.96 15.444 17.576C14.988 17.168 14.388 16.844 13.644 16.604C12.924 16.364 11.94 16.1 10.692 15.812C8.772 15.356 7.2 14.9 5.976 14.444C4.752 13.988 3.696 13.256 2.808 12.248C1.944 11.24 1.512 9.896 1.512 8.216C1.512 6.752 1.908 5.432 2.7 4.256C3.492 3.056 4.68 2.108 6.264 1.412C7.872 0.715999 9.828 0.368 12.132 0.368C13.74 0.368 15.312 0.559999 16.848 0.943999C18.384 1.328 19.728 1.88 20.88 2.6L19.08 7.028C16.752 5.708 14.424 5.048 12.096 5.048C10.464 5.048 9.252 5.312 8.46 5.84C7.692 6.368 7.308 7.064 7.308 7.928C7.308 8.792 7.752 9.44 8.64 9.872C9.552 10.28 10.932 10.688 12.78 11.096C14.7 11.552 16.272 12.008 17.496 12.464C18.72 12.92 19.764 13.64 20.628 14.624C21.516 15.608 21.96 16.94 21.96 18.62C21.96 20.06 21.552 21.38 20.736 22.58C19.944 23.756 18.744 24.692 17.136 25.388C15.528 26.084 13.572 26.432 11.268 26.432Z" fill="#0E1821"/>
<path d="M30.52 0.999999C32.3067 0.999999 33.7067 1.42667 34.72 2.28C35.7333 3.13333 36.24 4.30667 36.24 5.8C36.24 7.29333 35.7333 8.46667 34.72 9.32C33.7067 10.16 32.3067 10.58 30.52 10.58H26.76V15H25.28V0.999999H30.52ZM30.48 9.28C31.8667 9.28 32.9267 8.98 33.66 8.38C34.3933 7.76667 34.76 6.90667 34.76 5.8C34.76 4.66667 34.3933 3.8 33.66 3.2C32.9267 2.58667 31.8667 2.28 30.48 2.28H26.76V9.28H30.48ZM45.7555 15.12C44.3688 15.12 43.1088 14.8133 41.9755 14.2C40.8555 13.5733 39.9755 12.72 39.3355 11.64C38.7088 10.56 38.3955 9.34667 38.3955 8C38.3955 6.65333 38.7088 5.44 39.3355 4.36C39.9755 3.28 40.8555 2.43333 41.9755 1.82C43.1088 1.19333 44.3688 0.879999 45.7555 0.879999C47.1421 0.879999 48.3888 1.18667 49.4955 1.8C50.6155 2.41333 51.4955 3.26667 52.1355 4.36C52.7755 5.44 53.0955 6.65333 53.0955 8C53.0955 9.34667 52.7755 10.5667 52.1355 11.66C51.4955 12.74 50.6155 13.5867 49.4955 14.2C48.3888 14.8133 47.1421 15.12 45.7555 15.12ZM45.7555 13.8C46.8621 13.8 47.8621 13.5533 48.7555 13.06C49.6488 12.5533 50.3488 11.86 50.8555 10.98C51.3621 10.0867 51.6155 9.09333 51.6155 8C51.6155 6.90667 51.3621 5.92 50.8555 5.04C50.3488 4.14667 49.6488 3.45333 48.7555 2.96C47.8621 2.45333 46.8621 2.2 45.7555 2.2C44.6488 2.2 43.6421 2.45333 42.7355 2.96C41.8421 3.45333 41.1355 4.14667 40.6155 5.04C40.1088 5.92 39.8555 6.90667 39.8555 8C39.8555 9.09333 40.1088 10.0867 40.6155 10.98C41.1355 11.86 41.8421 12.5533 42.7355 13.06C43.6421 13.5533 44.6488 13.8 45.7555 13.8ZM58.9375 2.28H54.0175V0.999999H65.3375V2.28H60.4175V15H58.9375V2.28ZM73.6266 15.12C72.2399 15.12 70.9799 14.8133 69.8466 14.2C68.7266 13.5733 67.8466 12.72 67.2066 11.64C66.5799 10.56 66.2666 9.34667 66.2666 8C66.2666 6.65333 66.5799 5.44 67.2066 4.36C67.8466 3.28 68.7266 2.43333 69.8466 1.82C70.9799 1.19333 72.2399 0.879999 73.6266 0.879999C75.0132 0.879999 76.2599 1.18667 77.3666 1.8C78.4866 2.41333 79.3666 3.26667 80.0066 4.36C80.6466 5.44 80.9666 6.65333 80.9666 8C80.9666 9.34667 80.6466 10.5667 80.0066 11.66C79.3666 12.74 78.4866 13.5867 77.3666 14.2C76.2599 14.8133 75.0132 15.12 73.6266 15.12ZM73.6266 13.8C74.7332 13.8 75.7332 13.5533 76.6266 13.06C77.5199 12.5533 78.2199 11.86 78.7266 10.98C79.2332 10.0867 79.4866 9.09333 79.4866 8C79.4866 6.90667 79.2332 5.92 78.7266 5.04C78.2199 4.14667 77.5199 3.45333 76.6266 2.96C75.7332 2.45333 74.7332 2.2 73.6266 2.2C72.5199 2.2 71.5132 2.45333 70.6066 2.96C69.7132 3.45333 69.0066 4.14667 68.4866 5.04C67.9799 5.92 67.7266 6.90667 67.7266 8C67.7266 9.09333 67.9799 10.0867 68.4866 10.98C69.0066 11.86 69.7132 12.5533 70.6066 13.06C71.5132 13.5533 72.5199 13.8 73.6266 13.8ZM84.2839 0.999999H85.7639V13.72H93.6039V15H84.2839V0.999999ZM100.401 8.42L97.5413 11.32V15H96.0613V0.999999H97.5413V9.46L105.761 0.999999H107.461L101.401 7.34L107.881 15H106.121L100.401 8.42ZM115.892 15.12C114.506 15.12 113.246 14.8133 112.112 14.2C110.992 13.5733 110.112 12.72 109.472 11.64C108.846 10.56 108.532 9.34667 108.532 8C108.532 6.65333 108.846 5.44 109.472 4.36C110.112 3.28 110.992 2.43333 112.112 1.82C113.246 1.19333 114.506 0.879999 115.892 0.879999C117.279 0.879999 118.526 1.18667 119.632 1.8C120.752 2.41333 121.632 3.26667 122.272 4.36C122.912 5.44 123.232 6.65333 123.232 8C123.232 9.34667 122.912 10.5667 122.272 11.66C121.632 12.74 120.752 13.5867 119.632 14.2C118.526 14.8133 117.279 15.12 115.892 15.12ZM115.892 13.8C116.999 13.8 117.999 13.5533 118.892 13.06C119.786 12.5533 120.486 11.86 120.992 10.98C121.499 10.0867 121.752 9.09333 121.752 8C121.752 6.90667 121.499 5.92 120.992 5.04C120.486 4.14667 119.786 3.45333 118.892 2.96C117.999 2.45333 116.999 2.2 115.892 2.2C114.786 2.2 113.779 2.45333 112.872 2.96C111.979 3.45333 111.272 4.14667 110.752 5.04C110.246 5.92 109.992 6.90667 109.992 8C109.992 9.09333 110.246 10.0867 110.752 10.98C111.272 11.86 111.979 12.5533 112.872 13.06C113.779 13.5533 114.786 13.8 115.892 13.8ZM137.76 0.999999L131.56 15H130.1L123.9 0.999999H125.5L130.86 13.16L136.26 0.999999H137.76Z" fill="black"/>
<path d="M26.684 26.072C26.06 26.072 25.46 25.972 24.884 25.772C24.316 25.572 23.876 25.308 23.564 24.98L23.912 24.296C24.216 24.6 24.62 24.848 25.124 25.04C25.628 25.224 26.148 25.316 26.684 25.316C27.436 25.316 28 25.18 28.376 24.908C28.752 24.628 28.94 24.268 28.94 23.828C28.94 23.492 28.836 23.224 28.628 23.024C28.428 22.824 28.18 22.672 27.884 22.568C27.588 22.456 27.176 22.336 26.648 22.208C26.016 22.048 25.512 21.896 25.136 21.752C24.76 21.6 24.436 21.372 24.164 21.068C23.9 20.764 23.768 20.352 23.768 19.832C23.768 19.408 23.88 19.024 24.104 18.68C24.328 18.328 24.672 18.048 25.136 17.84C25.6 17.632 26.176 17.528 26.864 17.528C27.344 17.528 27.812 17.596 28.268 17.732C28.732 17.86 29.132 18.04 29.468 18.272L29.168 18.98C28.816 18.748 28.44 18.576 28.04 18.464C27.64 18.344 27.248 18.284 26.864 18.284C26.128 18.284 25.572 18.428 25.196 18.716C24.828 18.996 24.644 19.36 24.644 19.808C24.644 20.144 24.744 20.416 24.944 20.624C25.152 20.824 25.408 20.98 25.712 21.092C26.024 21.196 26.44 21.312 26.96 21.44C27.576 21.592 28.072 21.744 28.448 21.896C28.832 22.04 29.156 22.264 29.42 22.568C29.684 22.864 29.816 23.268 29.816 23.78C29.816 24.204 29.7 24.592 29.468 24.944C29.244 25.288 28.896 25.564 28.424 25.772C27.952 25.972 27.372 26.072 26.684 26.072ZM46.8256 18.368H43.8736V17.6H50.6656V18.368H47.7136V26H46.8256V18.368ZM68.8642 26.072C67.7762 26.072 66.9282 25.76 66.3202 25.136C65.7122 24.512 65.4082 23.604 65.4082 22.412V17.6H66.2962V22.376C66.2962 23.352 66.5162 24.08 66.9562 24.56C67.3962 25.04 68.0322 25.28 68.8642 25.28C69.7042 25.28 70.3442 25.04 70.7842 24.56C71.2242 24.08 71.4442 23.352 71.4442 22.376V17.6H72.3082V22.412C72.3082 23.604 72.0042 24.512 71.3962 25.136C70.7962 25.76 69.9522 26.072 68.8642 26.072ZM88.5441 17.6H91.9641C92.8521 17.6 93.6361 17.78 94.3161 18.14C94.9961 18.492 95.5241 18.988 95.9001 19.628C96.2761 20.26 96.4641 20.984 96.4641 21.8C96.4641 22.616 96.2761 23.344 95.9001 23.984C95.5241 24.616 94.9961 25.112 94.3161 25.472C93.6361 25.824 92.8521 26 91.9641 26H88.5441V17.6ZM91.9161 25.232C92.6521 25.232 93.2961 25.088 93.8481 24.8C94.4001 24.504 94.8281 24.1 95.1321 23.588C95.4361 23.068 95.5881 22.472 95.5881 21.8C95.5881 21.128 95.4361 20.536 95.1321 20.024C94.8281 19.504 94.4001 19.1 93.8481 18.812C93.2961 18.516 92.6521 18.368 91.9161 18.368H89.4321V25.232H91.9161ZM112.018 17.6H112.906V26H112.018V17.6ZM132.871 26.072C132.039 26.072 131.283 25.888 130.603 25.52C129.931 25.144 129.403 24.632 129.019 23.984C128.643 23.336 128.455 22.608 128.455 21.8C128.455 20.992 128.643 20.264 129.019 19.616C129.403 18.968 129.931 18.46 130.603 18.092C131.283 17.716 132.039 17.528 132.871 17.528C133.703 17.528 134.451 17.712 135.115 18.08C135.787 18.448 136.315 18.96 136.699 19.616C137.083 20.264 137.275 20.992 137.275 21.8C137.275 22.608 137.083 23.34 136.699 23.996C136.315 24.644 135.787 25.152 135.115 25.52C134.451 25.888 133.703 26.072 132.871 26.072ZM132.871 25.28C133.535 25.28 134.135 25.132 134.671 24.836C135.207 24.532 135.627 24.116 135.931 23.588C136.235 23.052 136.387 22.456 136.387 21.8C136.387 21.144 136.235 20.552 135.931 20.024C135.627 19.488 135.207 19.072 134.671 18.776C134.135 18.472 133.535 18.32 132.871 18.32C132.207 18.32 131.603 18.472 131.059 18.776C130.523 19.072 130.099 19.488 129.787 20.024C129.483 20.552 129.331 21.144 129.331 21.8C129.331 22.456 129.483 23.052 129.787 23.588C130.099 24.116 130.523 24.532 131.059 24.836C131.603 25.132 132.207 25.28 132.871 25.28Z" fill="black"/>
</svg>
